Trimmed_running_0600000001_forces_filt20Hz.mot
version=1
nRows=33
nColumns=19
inDegrees=yes
endheader
time	R_ground_force_vx	R_ground_force_vy	R_ground_force_vz	R_ground_force_px	R_ground_force_py	R_ground_force_pz	R_ground_torque_x	R_ground_torque_y	R_ground_torque_z	L_ground_force_vx	L_ground_force_vy	L_ground_force_vz	L_ground_force_px	L_ground_force_py	L_ground_force_pz	L_ground_torque_x	L_ground_torque_y	L_ground_torque_z	
2.374500	-191.443845	2165.895646	212.413071	  1.151249	  0.000000	 -0.311167	  0.000000	  5.831711	  0.000000	  0.000000	  0.000000	  0.000000	  0.793489	  0.000000	 -0.546190	  0.000000	  0.000000	  0.000000
2.375000	-186.418132	2163.847828	206.911943	  1.148464	  0.000000	 -0.311148	  0.000000	  4.959391	  0.000000	  0.000000	  0.000000	  0.000000	  0.795253	  0.000000	 -0.544581	  0.000000	  0.000000	  0.000000
2.375500	-181.361337	2161.641716	201.312791	  1.145663	  0.000000	 -0.311117	  0.000000	  4.159049	  0.000000	  0.000000	  0.000000	  0.000000	  0.797047	  0.000000	 -0.542759	  0.000000	  0.000000	  0.000000
2.376000	-176.268385	2159.280279	195.638931	  1.142849	  0.000000	 -0.311075	  0.000000	  3.432299	  0.000000	  0.000000	  0.000000	  0.000000	  0.798840	  0.000000	 -0.540937	  0.000000	  0.000000	  0.000000
2.376500	-171.131518	2156.766507	189.912652	  1.140022	  0.000000	 -0.311022	  0.000000	  2.779609	  0.000000	  0.000000	  0.000000	  0.000000	  0.800634	  0.000000	 -0.539116	  0.000000	  0.000000	  0.000000
2.377000	-165.940665	2154.103509	184.155230	  1.137184	  0.000000	 -0.310961	  0.000000	  2.200345	  0.000000	  0.000000	  0.000000	  0.000000	  0.802427	  0.000000	 -0.537294	  0.000000	  0.000000	  0.000000
2.377500	-160.683944	2151.294520	178.387028	  1.134337	  0.000000	 -0.310891	  0.000000	  1.692834	  0.000000	  0.000000	  0.000000	  0.000000	  0.804221	  0.000000	 -0.535472	  0.000000	  0.000000	  0.000000
2.378000	-155.348226	2148.342872	172.627640	  1.131482	  0.000000	 -0.310813	  0.000000	  1.254438	  0.000000	  0.000000	  0.000000	  0.000000	  0.806015	  0.000000	 -0.533650	  0.000000	  0.000000	  0.000000
2.378500	-149.919771	2145.251940	166.896056	  1.128622	  0.000000	 -0.310728	  0.000000	  0.881625	  0.000000	  0.000000	  0.000000	  0.000000	  0.807808	  0.000000	 -0.531828	  0.000000	  0.000000	  0.000000
2.379000	-144.384862	2142.025102	161.210787	  1.125759	  0.000000	 -0.310637	  0.000000	  0.570066	  0.000000	  0.000000	  0.000000	  0.000000	  0.809602	  0.000000	 -0.530007	  0.000000	  0.000000	  0.000000
2.379500	-138.730436	2138.665710	155.589929	  1.122894	  0.000000	 -0.310541	  0.000000	  0.314737	  0.000000	  0.000000	  0.000000	  0.000000	  0.811395	  0.000000	 -0.528185	  0.000000	  0.000000	  0.000000
2.380000	-132.944663	2135.177067	150.051129	  1.120029	  0.000000	 -0.310439	  0.000000	  0.110042	  0.000000	  0.000000	  0.000000	  0.000000	  0.813189	  0.000000	 -0.526363	  0.000000	  0.000000	  0.000000
2.380500	-127.017445	2131.562394	144.611456	  1.117165	  0.000000	 -0.310333	  0.000000	 -0.050065	  0.000000	  0.000000	  0.000000	  0.000000	  0.815086	  0.000000	 -0.524367	  0.000000	  0.000000	  0.000000
2.381000	-120.940835	2127.824753	139.287183	  1.114305	  0.000000	 -0.310222	  0.000000	 -0.171944	  0.000000	  0.000000	  0.000000	  0.000000	  0.816983	  0.000000	 -0.522371	  0.000000	  0.000000	  0.000000
2.381500	-114.709346	2123.966939	134.093533	  1.111448	  0.000000	 -0.310106	  0.000000	 -0.262156	  0.000000	  0.000000	  0.000000	  0.000000	  0.818879	  0.000000	 -0.520374	  0.000000	  0.000000	  0.000000
2.382000	-108.320167	2119.991309	129.044415	  1.108596	  0.000000	 -0.309986	  0.000000	 -0.327368	  0.000000	  0.000000	  0.000000	  0.000000	  0.820776	  0.000000	 -0.518378	  0.000000	  0.000000	  0.000000
2.382500	-101.773281	2115.899573	124.152193	  1.105748	  0.000000	 -0.309861	  0.000000	 -0.374269	  0.000000	  0.000000	  0.000000	  0.000000	  0.822673	  0.000000	 -0.516382	  0.000000	  0.000000	  0.000000
2.383000	-95.071488	2111.692560	119.427532	  1.102904	  0.000000	 -0.309731	  0.000000	 -0.409521	  0.000000	  0.000000	  0.000000	  0.000000	  0.824570	  0.000000	 -0.514386	  0.000000	  0.000000	  0.000000
2.383500	-88.220355	2107.369994	114.879324	  1.100063	  0.000000	 -0.309598	  0.000000	 -0.439698	  0.000000	  0.000000	  0.000000	  0.000000	  0.826467	  0.000000	 -0.512390	  0.000000	  0.000000	  0.000000
2.384000	-81.228070	2102.930292	110.514697	  1.097225	  0.000000	 -0.309460	  0.000000	 -0.471241	  0.000000	  0.000000	  0.000000	  0.000000	  0.828363	  0.000000	 -0.510393	  0.000000	  0.000000	  0.000000
2.384500	-74.105214	2098.370430	106.339076	  1.094389	  0.000000	 -0.309318	  0.000000	 -0.510391	  0.000000	  0.000000	  0.000000	  0.000000	  0.830260	  0.000000	 -0.508397	  0.000000	  0.000000	  0.000000
2.385000	-66.864455	2093.685872	102.356279	  1.091555	  0.000000	 -0.309173	  0.000000	 -0.563103	  0.000000	  0.000000	  0.000000	  0.000000	  0.832157	  0.000000	 -0.506401	  0.000000	  0.000000	  0.000000
2.385500	-59.520160	2088.870575	 98.568605	  1.088720	  0.000000	 -0.309024	  0.000000	 -0.634948	  0.000000	  0.000000	  0.000000	  0.000000	  0.834194	  0.000000	 -0.504304	  0.000000	  0.000000	  0.000000
2.386000	-52.087949	2083.917032	 94.976922	  1.085886	  0.000000	 -0.308873	  0.000000	 -0.730991	  0.000000	  0.000000	  0.000000	  0.000000	  0.836232	  0.000000	 -0.502207	  0.000000	  0.000000	  0.000000
2.386500	-44.584196	2078.816372	 91.580741	  1.083050	  0.000000	 -0.308719	  0.000000	 -0.855662	  0.000000	  0.000000	  0.000000	  0.000000	  0.838269	  0.000000	 -0.500110	  0.000000	  0.000000	  0.000000
2.387000	-37.025535	2073.558486	 88.378293	  1.080213	  0.000000	 -0.308564	  0.000000	 -1.012618	  0.000000	  0.000000	  0.000000	  0.000000	  0.840307	  0.000000	 -0.498013	  0.000000	  0.000000	  0.000000
2.387500	-29.428385	2068.132201	 85.366618	  1.077376	  0.000000	 -0.308407	  0.000000	 -1.204621	  0.000000	  0.000000	  0.000000	  0.000000	  0.842344	  0.000000	 -0.495916	  0.000000	  0.000000	  0.000000
2.388000	-21.808539	2062.525513	 82.541681	  1.074537	  0.000000	 -0.308250	  0.000000	 -1.433419	  0.000000	  0.000000	  0.000000	  0.000000	  0.844381	  0.000000	 -0.493820	  0.000000	  0.000000	  0.000000
2.388500	-14.180835	2056.725872	 79.898518	  1.071698	  0.000000	 -0.308094	  0.000000	 -1.699663	  0.000000	  0.000000	  0.000000	  0.000000	  0.846419	  0.000000	 -0.491723	  0.000000	  0.000000	  0.000000
2.389000	 -6.558924	2050.720502	 77.431421	  1.068859	  0.000000	 -0.307938	  0.000000	 -2.002856	  0.000000	  0.000000	  0.000000	  0.000000	  0.848456	  0.000000	 -0.489626	  0.000000	  0.000000	  0.000000
2.389500	  1.044862	2044.496728	 75.134147	  1.066023	  0.000000	 -0.307783	  0.000000	 -2.341349	  0.000000	  0.000000	  0.000000	  0.000000	  0.850494	  0.000000	 -0.487529	  0.000000	  0.000000	  0.000000
2.390000	  8.619563	2038.042287	 73.000149	  1.063189	  0.000000	 -0.307632	  0.000000	 -2.712382	  0.000000	  0.000000	  0.000000	  0.000000	  0.852531	  0.000000	 -0.485432	  0.000000	  0.000000	  0.000000
2.390500	 16.155589	2031.345607	 71.022792	  1.060361	  0.000000	 -0.307482	  0.000000	 -3.112171	  0.000000	  0.000000	  0.000000	  0.000000	  0.854726	  0.000000	 -0.483271	  0.000000	  0.000000	  0.000000
